<svg xmlns="http://www.w3.org/2000/svg" xmlns:svg="http://www.w3.org/2000/svg" id="svg8" width="16" height="16" version="1.1" viewBox="0 0 4.233 4.233"><metadata id="metadata5"/><g id="layer1" transform="translate(0,-292.76665)"><path style="opacity:1;fill:none;fill-opacity:1;stroke-width:.01216322;stroke-miterlimit:4;stroke-dasharray:none;stroke:none;stroke-opacity:1" id="path821" d="m 2.6062411,296.55937 -1.5352712,-0.004 -0.95399294,-1.2029 0.34566145,-1.49586 1.38502569,-0.6624 1.3814374,0.66985 0.3375985,1.4977 z"/><path style="opacity:1;fill:none;fill-opacity:1;stroke:none;stroke-width:.04429172;stroke-miterlimit:4;stroke-dasharray:none;stroke-opacity:1" id="path823" d="m 3.6628744,294.74243 -0.5854683,0.001 -0.4493899,-0.37527 -0.1030371,-0.57633 0.2915279,-0.50772 0.5496839,-0.20155 0.5506366,0.19893 0.2939403,0.50633 -0.1002939,0.57682 z"/><path id="path987" style="opacity:1;fill:#6594cb;fill-opacity:1;stroke:none;stroke-width:.000570088;stroke-miterlimit:4;stroke-dasharray:none;stroke-opacity:1" d="m 2.1113337,292.80276 c -0.00208,3e-5 -0.3127796,0.11352 -0.6906001,0.25205 l -0.68660152,0.25207 -0.36529837,0.63593 c -0.20070933,0.3496 -0.36423208,0.63774 -0.36396532,0.64128 0.00120484,0.0154 0.25438954,1.42754 0.25730999,1.43453 0.001807,0.005 0.25427345,0.21981 0.56261306,0.47728 l 0.56127926,0.46797 0.7052659,-9.9e-4 c 0.388194,-2e-4 0.7203008,-9.9e-4 0.7372635,-0.003 l 0.030662,-0.003 0.5586136,-0.47059 c 0.306998,-0.25888 0.5589222,-0.47246 0.5599461,-0.47597 0.00103,-0.003 0.058147,-0.32959 0.1266555,-0.72393 l 0.123988,-0.71726 -0.3679649,-0.63461 -0.3692978,-0.63461 -0.037332,-0.0128 c -0.020743,-0.008 -0.3301724,-0.11997 -0.6879341,-0.24921 -0.3577616,-0.12926 -0.6525567,-0.23477 -0.6546044,-0.23477 z"/><g id="g15653" transform="matrix(0.79763377,0,0,0.79763377,0.49284803,59.561771)" style="fill:#fff"><ellipse style="display:inline;opacity:1;fill:#fff;fill-opacity:1;stroke:#000;stroke-width:0;stroke-miterlimit:4;stroke-dasharray:none;stroke-opacity:1" id="path6915" cx="295.025" cy="-3.504" rx=".22" ry=".219" transform="rotate(90)"/><ellipse style="display:inline;opacity:1;fill:#fff;fill-opacity:1;stroke:#000;stroke-width:0;stroke-miterlimit:4;stroke-dasharray:none;stroke-opacity:1" id="path6915-3" cx="207.174" cy="-211.521" rx=".22" ry=".219" transform="rotate(135)"/><ellipse style="display:inline;opacity:1;fill:#fff;fill-opacity:1;stroke:#000;stroke-width:0;stroke-miterlimit:4;stroke-dasharray:none;stroke-opacity:1" id="path6915-8" cx="-2.036" cy="-296.492" rx=".22" ry=".219" transform="scale(-1)"/><ellipse style="display:inline;opacity:1;fill:#fff;fill-opacity:1;stroke:#000;stroke-width:0;stroke-miterlimit:4;stroke-dasharray:none;stroke-opacity:1" id="path6915-6" cx="-210.053" cy="-208.642" rx=".22" ry=".219" transform="rotate(-135)"/><ellipse style="display:inline;opacity:1;fill:#fff;fill-opacity:1;stroke:#000;stroke-width:0;stroke-miterlimit:4;stroke-dasharray:none;stroke-opacity:1" id="path6915-2" cx="-295.025" cy=".568" rx=".22" ry=".219" transform="rotate(-90)"/><ellipse style="display:inline;opacity:1;fill:#fff;fill-opacity:1;stroke:#000;stroke-width:0;stroke-miterlimit:4;stroke-dasharray:none;stroke-opacity:1" id="path6915-67" cx="-207.174" cy="208.586" rx=".22" ry=".219" transform="rotate(-44.99999)"/><ellipse style="display:inline;opacity:1;fill:#fff;fill-opacity:1;stroke:#000;stroke-width:0;stroke-miterlimit:4;stroke-dasharray:none;stroke-opacity:1" id="path6915-5" cx="2.036" cy="293.557" rx=".22" ry=".219"/><ellipse style="display:inline;opacity:1;fill:#fff;fill-opacity:1;stroke:#000;stroke-width:0;stroke-miterlimit:4;stroke-dasharray:none;stroke-opacity:1" id="path6915-69" cx="210.053" cy="205.706" rx=".22" ry=".219" transform="rotate(45.000023)"/><rect style="display:inline;fill:#fff;fill-opacity:1;stroke:#000;stroke-width:0;stroke-miterlimit:4;stroke-dasharray:none;stroke-opacity:1" id="rect6836-1-8" width=".122" height=".314" x="294.965" y="-3.239" ry="0" transform="rotate(90)"/><rect style="display:inline;fill:#fff;fill-opacity:1;stroke:#000;stroke-width:0;stroke-miterlimit:4;stroke-dasharray:none;stroke-opacity:1" id="rect6836-1-8-7" width=".122" height=".314" x="207.116" y="-211.259" ry="0" transform="rotate(135)"/><rect style="display:inline;fill:#fff;fill-opacity:1;stroke:#000;stroke-width:0;stroke-miterlimit:4;stroke-dasharray:none;stroke-opacity:1" id="rect6836-1-8-2" width=".122" height=".314" x="-2.095" y="-296.232" ry="0" transform="scale(-1)"/><rect style="display:inline;fill:#fff;fill-opacity:1;stroke:#000;stroke-width:0;stroke-miterlimit:4;stroke-dasharray:none;stroke-opacity:1" id="rect6836-1-8-8" width=".122" height=".314" x="-210.114" y="-208.383" ry="0" transform="rotate(-135)"/><rect style="display:inline;fill:#fff;fill-opacity:1;stroke:#000;stroke-width:0;stroke-miterlimit:4;stroke-dasharray:none;stroke-opacity:1" id="rect6836-1-8-29" width=".122" height=".314" x="-295.088" y=".828" ry="0" transform="rotate(-90)"/><rect style="display:inline;fill:#fff;fill-opacity:1;stroke:#000;stroke-width:0;stroke-miterlimit:4;stroke-dasharray:none;stroke-opacity:1" id="rect6836-1-8-9" width=".122" height=".314" x="-207.239" y="208.848" ry="0" transform="rotate(-44.99999)"/><rect style="display:inline;fill:#fff;fill-opacity:1;stroke:#000;stroke-width:0;stroke-miterlimit:4;stroke-dasharray:none;stroke-opacity:1" id="rect6836-1-8-6" width=".122" height=".314" x="1.972" y="293.821" ry="0"/><rect style="display:inline;fill:#fff;fill-opacity:1;stroke:#000;stroke-width:0;stroke-miterlimit:4;stroke-dasharray:none;stroke-opacity:1" id="rect6836-1-8-0" width=".122" height=".314" x="209.992" y="205.972" ry="0" transform="rotate(45.000025)"/><text xml:space="preserve" style="font-style:normal;font-variant:normal;font-weight:600;font-stretch:normal;font-size:2.42406px;line-height:1.25;font-family:Montserrat;-inkscape-font-specification:'Montserrat, Semi-Bold';font-variant-ligatures:normal;font-variant-caps:normal;font-variant-numeric:normal;font-variant-east-asian:normal;letter-spacing:0;word-spacing:0;display:inline;fill:#fff;fill-opacity:1;stroke:none;stroke-width:.0606015" id="text7472" x="1.28" y="295.673"><tspan id="tspan7470" x="1.28" y="295.673" style="font-style:normal;font-variant:normal;font-weight:600;font-stretch:normal;font-size:2.42406px;font-family:Montserrat;-inkscape-font-specification:'Montserrat, Semi-Bold';font-variant-ligatures:normal;font-variant-caps:normal;font-variant-numeric:normal;font-variant-east-asian:normal;fill:#fff;fill-opacity:1;stroke-width:.0606015">e</tspan></text></g></g></svg>