<svg xmlns="http://www.w3.org/2000/svg" xmlns:svg="http://www.w3.org/2000/svg" id="svg8" width="16" height="16" version="1.1" viewBox="0 0 4.233 4.233"><metadata id="metadata5"/><g id="layer1" transform="translate(0,-292.76665)"><path style="opacity:1;fill:none;fill-opacity:1;stroke:none;stroke-width:.0121632;stroke-miterlimit:4;stroke-dasharray:none;stroke-opacity:1" id="path821" d="m 7.001757,296.58933 -1.5352712,-0.004 -0.9539929,-1.2029 0.3456614,-1.49586 1.3850257,-0.6624 1.3814374,0.66985 0.3375985,1.4977 z"/><path style="opacity:1;fill:none;fill-opacity:1;stroke:none;stroke-width:.04429172;stroke-miterlimit:4;stroke-dasharray:none;stroke-opacity:1" id="path823" d="m 3.6628744,294.74243 -0.5854683,0.001 -0.4493899,-0.37527 -0.1030371,-0.57633 0.2915279,-0.50772 0.5496839,-0.20155 0.5506366,0.19893 0.2939403,0.50633 -0.1002939,0.57682 z"/><path id="path987" style="opacity:1;fill:#6594cb;fill-opacity:1;stroke:none;stroke-width:.000570088;stroke-miterlimit:4;stroke-dasharray:none;stroke-opacity:1" d="m 2.1113337,292.80276 c -0.00208,3e-5 -0.3127796,0.11352 -0.6906001,0.25205 l -0.68660152,0.25207 -0.36529837,0.63593 c -0.20070933,0.3496 -0.36423208,0.63774 -0.36396532,0.64128 0.00120484,0.0154 0.25438954,1.42754 0.25730999,1.43453 0.001807,0.005 0.25427345,0.21981 0.56261306,0.47728 l 0.56127926,0.46797 0.7052659,-9.9e-4 c 0.388194,-2e-4 0.7203008,-9.9e-4 0.7372635,-0.003 l 0.030662,-0.003 0.5586136,-0.47059 c 0.306998,-0.25888 0.5589222,-0.47246 0.5599461,-0.47597 0.00103,-0.003 0.058147,-0.32959 0.1266555,-0.72393 l 0.123988,-0.71726 -0.3679649,-0.63461 -0.3692978,-0.63461 -0.037332,-0.0128 c -0.020743,-0.008 -0.3301724,-0.11997 -0.6879341,-0.24921 -0.3577616,-0.12926 -0.6525567,-0.23477 -0.6546044,-0.23477 z"/><g id="g15737" transform="matrix(0.89821744,0,0,0.89821744,0.34121819,29.874389)" style="fill:#fff"><text xml:space="preserve" style="font-style:normal;font-variant:normal;font-weight:600;font-stretch:normal;font-size:1.95874px;line-height:1.25;font-family:Montserrat;-inkscape-font-specification:'Montserrat, Semi-Bold';font-variant-ligatures:normal;font-variant-caps:normal;font-variant-numeric:normal;font-variant-east-asian:normal;letter-spacing:0;word-spacing:0;display:inline;fill:#fff;fill-opacity:1;stroke:none;stroke-width:.0489684" id="text7472-5" x="1.054" y="295.561"><tspan id="tspan7470-6" x="1.054" y="295.561" style="font-style:normal;font-variant:normal;font-weight:600;font-stretch:normal;font-size:1.95874px;font-family:Montserrat;-inkscape-font-specification:'Montserrat, Semi-Bold';font-variant-ligatures:normal;font-variant-caps:normal;font-variant-numeric:normal;font-variant-east-asian:normal;fill:#fff;fill-opacity:1;stroke-width:.0489684">e</tspan></text><rect style="display:inline;fill:#fff;fill-opacity:1;stroke:#000;stroke-width:0;stroke-miterlimit:4;stroke-dasharray:none;stroke-opacity:1" id="rect6836-1-8-9-7" width=".142" height=".364" x="294.968" y="-.873" ry="0" transform="rotate(90)"/><g id="g14368" transform="matrix(0.05872322,0,0,0.05872322,0.51973739,293.54815)" style="display:inline;fill:#fff"><g id="g14357" transform="translate(0,0.32321547)" style="fill:#fff"><ellipse style="fill:#fff;fill-opacity:1;stroke:#000;stroke-width:0;stroke-miterlimit:4;stroke-dasharray:none;stroke-opacity:1" id="path6915-7" cx="25.06" cy="-45.478" rx="4.348" ry="4.331" transform="rotate(90)"/><rect style="display:inline;fill:#fff;fill-opacity:1;stroke:#000;stroke-width:0;stroke-miterlimit:4;stroke-dasharray:none;stroke-opacity:1" id="rect6836-1-8-4" width="2.423" height="6.205" x="23.89" y="-40.241" ry="0" transform="rotate(90)"/></g><g id="g13703" transform="translate(1.1374415)" style="fill:#fff"><ellipse style="display:inline;fill:#fff;fill-opacity:1;stroke:#000;stroke-width:0;stroke-miterlimit:4;stroke-dasharray:none;stroke-opacity:1" id="path6915-3-0" cx="14.342" cy="-57.884" rx="4.348" ry="4.331" transform="rotate(120.81993)"/><rect style="display:inline;fill:#fff;fill-opacity:1;stroke:#000;stroke-width:0;stroke-miterlimit:4;stroke-dasharray:none;stroke-opacity:1" id="rect6836-1-8-7-6" width="2.423" height="6.205" x="13.193" y="-52.689" ry="0" transform="rotate(120.81993)"/></g><g id="g13699" style="fill:#fff"><ellipse style="display:inline;fill:#fff;fill-opacity:1;stroke:#000;stroke-width:0;stroke-miterlimit:4;stroke-dasharray:none;stroke-opacity:1" id="path6915-3-9" cx="-29.838" cy="-32.851" rx="4.348" ry="4.331" transform="matrix(-0.51234162,-0.85878173,-0.85878173,0.51234162,0,0)"/><rect style="display:inline;fill:#fff;fill-opacity:1;stroke:#000;stroke-width:0;stroke-miterlimit:4;stroke-dasharray:none;stroke-opacity:1" id="rect6836-1-8-7-7" width="2.423" height="6.205" x="-30.987" y="-27.657" ry="0" transform="matrix(-0.51234162,-0.85878173,-0.85878173,0.51234162,0,0)"/></g></g></g></g></svg>