<svg xmlns="http://www.w3.org/2000/svg" xmlns:svg="http://www.w3.org/2000/svg" id="svg855" width="50mm" height="50mm" version="1.1" viewBox="0 0 50 50"><metadata id="metadata852"/><g id="layer3" style="display:none"><rect style="display:inline;fill:#1a1a1a;fill-opacity:1;stroke:#000;stroke-width:0" id="rect9364" width="50.114" height="50.121" x="-.023" y=".053" ry="0"/></g><g id="layer1" style="display:inline"><path id="path18310-4" style="fill:#3e94cb;fill-opacity:1;stroke:#2592b0;stroke-width:0;stroke-miterlimit:4;stroke-dasharray:none" d="m 38.675536,3.3295888 a 7.9809701,7.9231394 19.978408 0 0 -1.69861,0.182418 7.9809701,7.9231394 19.978408 0 0 -6.04511,9.4392172 7.9809701,7.9231394 19.978408 0 0 9.52035,6.055444 7.9809701,7.9231394 19.978408 0 0 6.04511,-9.4392172 7.9809701,7.9231394 19.978408 0 0 -7.82174,-6.237862 z m 0.0139,5.076176 a 2.8536138,2.8536138 0 0 1 0.0253,0 2.8536138,2.8536138 0 0 1 2.85357,2.8535722 2.8536138,2.8536138 0 0 1 -2.85357,2.853573 2.8536138,2.8536138 0 0 1 -2.85357,-2.853573 2.8536138,2.8536138 0 0 1 2.82825,-2.8535722 z"/><rect style="display:inline;fill:#3e94cb;fill-opacity:1;stroke:#2592b0;stroke-width:0;stroke-miterlimit:4;stroke-dasharray:none" id="rect18387-3" width="3.71" height="5.949" x="-21.067" y="40.441" ry="0" transform="matrix(-0.211836,-0.97730523,0.97724799,-0.21209989,0,0)"/><rect style="display:inline;fill:#3e94cb;fill-opacity:1;stroke:#2592b0;stroke-width:0;stroke-miterlimit:4;stroke-dasharray:none" id="rect18387-3-4" width="3.71" height="5.949" x="25.72" y="34.393" ry="0" transform="matrix(0.86053996,-0.50938294,0.50961529,0.86040238,0,0)"/><rect style="display:inline;fill:#3e94cb;fill-opacity:1;stroke:#2592b0;stroke-width:0;stroke-miterlimit:4;stroke-dasharray:none" id="rect18387-3-2" width="3.71" height="5.949" x="34.541" y="-12.407" ry="0" transform="matrix(0.74635284,0.66555048,-0.66534892,0.74653253,0,0)"/><rect style="display:inline;fill:#3e94cb;fill-opacity:1;stroke:#2592b0;stroke-width:0;stroke-miterlimit:4;stroke-dasharray:none" id="rect18387-3-26" width="3.71" height="5.949" x="-6.993" y="-34.982" ry="0" transform="matrix(-0.39964438,0.91667026,-0.91677814,-0.39939684,0,0)"/><rect style="display:inline;fill:#3e94cb;fill-opacity:1;stroke:#2592b0;stroke-width:0;stroke-miterlimit:4;stroke-dasharray:none" id="rect18387-3-41" width="3.71" height="5.949" x="-41.464" y="-2.558" ry="0" transform="matrix(-0.99542819,-0.09551293,0.09524414,-0.99545394,0,0)"/><path style="display:inline;fill:none;stroke:#3e94cb;stroke-width:2.89843;stroke-linecap:butt;stroke-linejoin:miter;stroke-miterlimit:4;stroke-dasharray:none;stroke-opacity:1" id="path5297" d="m 26.698061,12.748412 -25.1916545,-10e-7 V 48.556473 H 37.313425 V 23.294669"/><rect style="fill:none;stroke:#3e94cb;stroke-width:1.93229;stroke-miterlimit:4;stroke-dasharray:none;stroke-opacity:1" id="rect5934" width="15.557" height="7.598" x="8.462" y="18.698" ry="0"/><circle style="fill:none;stroke:#3e94cb;stroke-width:2.89843;stroke-miterlimit:4;stroke-dasharray:none;stroke-opacity:1" id="path5936" cx="19.864" cy="36.535" r="3.904"/></g></svg>