<svg xmlns="http://www.w3.org/2000/svg" xmlns:svg="http://www.w3.org/2000/svg" id="svg855" width="50mm" height="50mm" version="1.1" viewBox="0 0 50 50"><metadata id="metadata852"/><g id="layer3" style="display:none"><rect style="display:inline;fill:#1a1a1a;fill-opacity:1;stroke:#000;stroke-width:0" id="rect9364" width="50.114" height="50.121" x="-.023" y=".053" ry="0"/></g><g id="layer1" style="display:inline"><path id="path18310-4" style="fill:#3e94cb;fill-opacity:1;stroke:#2592b0;stroke-width:0;stroke-miterlimit:4;stroke-dasharray:none" d="M 146.73633 12.443359 A 30.164297 29.945724 19.978408 0 0 140.31641 13.132812 A 30.164297 29.945724 19.978408 0 0 117.46875 48.808594 A 30.164297 29.945724 19.978408 0 0 153.45117 71.695312 A 30.164297 29.945724 19.978408 0 0 176.29883 36.019531 A 30.164297 29.945724 19.978408 0 0 146.73633 12.443359 z M 146.78906 31.628906 A 10.785312 10.785312 0 0 1 146.88477 31.628906 A 10.785312 10.785312 0 0 1 157.66992 42.414062 A 10.785312 10.785312 0 0 1 146.88477 53.199219 A 10.785312 10.785312 0 0 1 136.09961 42.414062 A 10.785312 10.785312 0 0 1 146.78906 31.628906 z" transform="scale(0.26458333)"/><rect style="display:inline;fill:#3e94cb;fill-opacity:1;stroke:#2592b0;stroke-width:0;stroke-miterlimit:4;stroke-dasharray:none" id="rect18387-3" width="3.71" height="5.949" x="-21.062" y="40.594" ry="0" transform="matrix(-0.211836,-0.97730523,0.97724799,-0.21209989,0,0)"/><rect style="fill:#3e94cb;fill-opacity:1;stroke:#2592b0;stroke-width:0;stroke-miterlimit:4;stroke-dasharray:none" id="rect18259" width="7.524" height="8.89" x="8.302" y="-53.63" ry="0" transform="matrix(-0.61075128,0.7918225,-0.78778442,-0.61595106,0,0)"/><rect style="display:inline;fill:#3e94cb;fill-opacity:1;stroke:#2592b0;stroke-width:0;stroke-miterlimit:4;stroke-dasharray:none" id="rect18259-4" width="7.514" height="8.901" x="-23.107" y="-50.164" ry="0" transform="matrix(-0.99994331,0.01064744,-0.01512397,-0.99988563,0,0)"/><rect style="display:inline;fill:#3e94cb;fill-opacity:1;stroke:#2592b0;stroke-width:0;stroke-miterlimit:4;stroke-dasharray:none" id="rect18259-9" width="7.557" height="8.851" x="-40.161" y="-23.139" ry="0" transform="matrix(-0.63174439,-0.77517677,0.77226811,-0.63529675,0,0)"/><rect style="display:inline;fill:#3e94cb;fill-opacity:1;stroke:#2592b0;stroke-width:0;stroke-miterlimit:4;stroke-dasharray:none" id="rect18259-93" width="7.548" height="8.862" x="-29.652" y="6.699" ry="0" transform="matrix(0.20675023,-0.97839376,0.97702492,0.21312508,0,0)"/><rect style="display:inline;fill:#3e94cb;fill-opacity:1;stroke:#2592b0;stroke-width:0;stroke-miterlimit:4;stroke-dasharray:none" id="rect18259-6" width="7.509" height="8.907" x=".294" y="17.255" ry="0" transform="matrix(0.8949225,-0.44622161,0.44470901,0.89567511,0,0)"/><rect style="display:inline;fill:#3e94cb;fill-opacity:1;stroke:#2592b0;stroke-width:0;stroke-miterlimit:4;stroke-dasharray:none" id="rect18259-0" width="7.536" height="8.876" x="27.134" y=".356" ry="0" transform="matrix(0.9049462,0.42552601,-0.41893402,0.90801668,0,0)"/><rect style="display:inline;fill:#3e94cb;fill-opacity:1;stroke:#2592b0;stroke-width:0;stroke-miterlimit:4;stroke-dasharray:none" id="rect18259-5" width="7.563" height="8.844" x="30.813" y="-31.017" ry="0" transform="matrix(0.23582,0.97179675,-0.97216039,0.23431642,0,0)"/><path id="path18310" style="fill:#3e94cb;fill-opacity:1;stroke:#2592b0;stroke-width:0;stroke-miterlimit:4;stroke-dasharray:none" d="M 74.410156 60.904297 A 55.584335 55.181565 70.263479 0 0 31.203125 82.275391 A 55.584335 55.181565 70.263479 0 0 41.126953 160.22656 A 55.584335 55.181565 70.263479 0 0 118.59766 150.60742 A 55.584335 55.181565 70.263479 0 0 108.67383 72.65625 A 55.584335 55.181565 70.263479 0 0 74.410156 60.904297 z M 74.691406 87.4375 A 29.004072 29.004072 0 0 1 87.238281 90.193359 A 29.004072 29.004072 0 0 1 101.14844 128.78125 A 29.004072 29.004072 0 0 1 62.560547 142.68945 A 29.004072 29.004072 0 0 1 48.652344 104.10352 A 29.004072 29.004072 0 0 1 74.691406 87.4375 z" transform="scale(0.26458333)"/><rect style="display:inline;fill:#3e94cb;fill-opacity:1;stroke:#2592b0;stroke-width:0;stroke-miterlimit:4;stroke-dasharray:none" id="rect18387-3-4" width="3.71" height="5.949" x="25.867" y="34.436" ry="0" transform="matrix(0.86053996,-0.50938294,0.50961529,0.86040238,0,0)"/><rect style="display:inline;fill:#3e94cb;fill-opacity:1;stroke:#2592b0;stroke-width:0;stroke-miterlimit:4;stroke-dasharray:none" id="rect18387-3-2" width="3.71" height="5.949" x="34.627" y="-12.533" ry="0" transform="matrix(0.74635284,0.66555048,-0.66534892,0.74653253,0,0)"/><rect style="display:inline;fill:#3e94cb;fill-opacity:1;stroke:#2592b0;stroke-width:0;stroke-miterlimit:4;stroke-dasharray:none" id="rect18387-3-26" width="3.71" height="5.949" x="-7.086" y="-35.103" ry="0" transform="matrix(-0.39964438,0.91667026,-0.91677814,-0.39939684,0,0)"/><rect style="display:inline;fill:#3e94cb;fill-opacity:1;stroke:#2592b0;stroke-width:0;stroke-miterlimit:4;stroke-dasharray:none" id="rect18387-3-41" width="3.71" height="5.949" x="-41.608" y="-2.507" ry="0" transform="matrix(-0.99542819,-0.09551293,0.09524414,-0.99545394,0,0)"/></g></svg>