<svg xmlns="http://www.w3.org/2000/svg" xmlns:svg="http://www.w3.org/2000/svg" id="svg855" width="50mm" height="50mm" version="1.1" viewBox="0 0 50 50"><metadata id="metadata852"/><g id="layer2" style="display:none"><rect style="display:inline;opacity:1;fill:#3d8037;fill-opacity:.400538;stroke-width:.2732;stroke-miterlimit:4;stroke-dasharray:none" id="rect2212" width="75" height="75" x=".059" y=".091" ry="0"/><rect style="display:inline;opacity:1;fill:#3d5238;fill-opacity:.400538;stroke-width:.273201;stroke-miterlimit:4;stroke-dasharray:none" id="rect2212-9" width="75" height="75" x="75.059" y=".091" ry="0"/><rect style="display:inline;opacity:1;fill:#905238;fill-opacity:.400538;stroke-width:.273201;stroke-miterlimit:4;stroke-dasharray:none" id="rect2212-9-3" width="75" height="75" x="75.059" y="75.091" ry="0"/><rect style="display:inline;opacity:1;fill:#9052ac;fill-opacity:.400538;stroke-width:.273201;stroke-miterlimit:4;stroke-dasharray:none" id="rect2212-9-3-6" width="75" height="75" x=".059" y="75.091" ry="0"/></g><g id="layer1" style="display:inline"><path id="path7082" style="fill:#2592b0;fill-opacity:1;stroke:#000;stroke-width:0;stroke-miterlimit:4;stroke-dasharray:none;stroke-opacity:1" d="m 25.008366,0.00485703 a 24.996796,24.996796 0 0 0 -5.097227,0.5254821 l 1.167736,4.86419637 a 19.997437,19.997437 0 0 1 3.850436,-0.390107 19.997437,19.997437 0 0 1 0.07904,0 A 19.997437,19.997437 0 0 1 45.005605,25.00168 19.997437,19.997437 0 0 1 39.6986,38.56914 l 2.592789,4.491655 A 24.996796,24.996796 0 0 0 50.005189,25.00168 24.996796,24.996796 0 0 0 25.008366,0.00485703 Z M 7.863288,6.8118385 A 24.996796,24.996796 0 0 0 0.01154278,25.00168 24.996796,24.996796 0 0 0 25.008366,49.998502 24.996796,24.996796 0 0 0 30.194467,49.454418 L 29.026726,44.59074 A 19.997437,19.997437 0 0 1 25.008366,44.998929 19.997437,19.997437 0 0 1 5.0111143,25.00168 19.997437,19.997437 0 0 1 10.449877,11.292645 Z"/><path id="rect7139" style="fill:#2592b0;fill-opacity:1;stroke:#000;stroke-width:0;stroke-miterlimit:4;stroke-dasharray:none;stroke-opacity:1" d="M 16.06572,4.4878315 1.2390195,2.2271466 13.805344,19.314948 Z"/><path id="rect7139-0" style="display:inline;fill:#2592b0;fill-opacity:1;stroke:#000;stroke-width:0;stroke-miterlimit:4;stroke-dasharray:none;stroke-opacity:1" d="M 34.506816,44.681855 49.328546,46.974916 36.799573,29.85971 Z"/><text xml:space="preserve" style="font-style:normal;font-variant:normal;font-weight:600;font-stretch:normal;font-size:35.586px;line-height:1.25;font-family:Montserrat;-inkscape-font-specification:'Montserrat, Semi-Bold';font-variant-ligatures:normal;font-variant-caps:normal;font-variant-numeric:normal;font-variant-east-asian:normal;letter-spacing:0;word-spacing:0;display:inline;fill:#2592b0;fill-opacity:1;stroke:none;stroke-width:.889647" id="text7472" x="13.393" y="35.537"><tspan id="tspan7470" x="13.393" y="35.537" style="font-style:normal;font-variant:normal;font-weight:600;font-stretch:normal;font-size:35.586px;font-family:Montserrat;-inkscape-font-specification:'Montserrat, Semi-Bold';font-variant-ligatures:normal;font-variant-caps:normal;font-variant-numeric:normal;font-variant-east-asian:normal;fill:#2592b0;fill-opacity:1;stroke-width:.889647">e</tspan></text></g></svg>